<svg width="55" height="56" viewBox="0 0 55 56" fill="none" xmlns="http://www.w3.org/2000/svg">
<mask id="path-1-outside-1" maskUnits="userSpaceOnUse" x="0" y="-6.10352e-05" width="55" height="56" fill="black">
<rect fill="white" y="-6.10352e-05" width="55" height="56"/>
<path fill-rule="evenodd" clip-rule="evenodd" d="M27.3519 55C28.0066 55 28.6559 54.9756 29.2994 54.9268L30.6721 50.4745C30.6721 50.4745 30.9664 49.7856 31.3446 50.3464C31.6713 50.8481 33.2649 53.1441 33.9599 54.1443C35.0682 53.8507 36.156 53.4831 37.2173 53.0431L37.1439 48.4064C37.1439 48.4064 37.2285 47.63 37.7754 48.0619C38.2304 48.4613 40.4171 50.1233 41.3866 50.8569C42.4294 50.1836 43.4246 49.4371 44.3655 48.6213L42.9022 44.2687C42.9022 44.2687 42.7759 43.4937 43.406 43.7521C43.9562 43.9507 46.4988 44.8404 47.6394 45.2391C48.4078 44.2898 49.1127 43.2882 49.7482 42.2399L47.0622 38.322C47.0622 38.322 46.7262 37.6324 47.3987 37.7185C47.9787 37.7517 50.6568 37.8609 51.8768 37.9097C52.3126 36.776 52.6716 35.6138 52.9527 34.4305L49.2476 31.7711C49.2476 31.7711 48.7014 31.211 49.3316 31.0388C49.9162 30.872 52.503 30.0386 53.6523 29.6663C53.6854 29.1191 53.7025 28.5706 53.7025 28.022C53.7025 27.4124 53.6814 26.8083 53.6424 26.2095C52.4587 25.8678 49.9082 25.1361 49.3323 25.0052C48.7021 24.8323 49.206 24.2722 49.206 24.2722L52.919 21.465C52.6359 20.3035 52.2775 19.1622 51.8457 18.0495C50.6131 18.1011 47.974 18.2163 47.3994 18.2821C46.7269 18.3248 47.0628 17.6352 47.0628 17.6352L49.7244 13.7525C49.0955 12.7185 48.3999 11.7278 47.6408 10.7887C46.5127 11.1786 43.8808 12.0892 43.3221 12.2913C42.6925 12.5496 42.8182 11.7739 42.8182 11.7739L44.3073 7.34742C43.3822 6.54797 42.4042 5.81497 41.3813 5.15316C40.4092 5.89837 38.229 7.57322 37.7754 7.93871C37.2279 8.36929 37.1439 7.59357 37.1439 7.59357L37.2173 2.96365C36.1593 2.52358 35.0742 2.15538 33.9685 1.86178C33.2563 2.88567 31.7077 5.11723 31.387 5.61154C31.0087 6.21436 30.6721 5.52543 30.6721 5.52543L29.3489 1.07724C28.6844 1.02571 28.0178 0.999939 27.3519 0.999939C26.7581 1.00062 26.165 1.02164 25.5731 1.063L24.2837 5.39524C24.2837 5.39524 23.9478 6.08552 23.5695 5.52475C23.2528 5.00534 21.7696 2.826 21.0554 1.78041C19.8982 2.07062 18.7615 2.44289 17.6539 2.89313L17.7273 7.55017C17.7273 7.55017 17.6016 8.28249 17.0971 7.85191C16.6084 7.48439 14.4289 5.79666 13.4727 5.0562C12.4709 5.69427 11.5114 6.40015 10.6015 7.16909L11.9697 11.6444C11.9697 11.6444 12.096 12.3767 11.4651 12.1184C10.9222 11.8885 8.43655 10.9623 7.27537 10.531C6.43954 11.5386 5.67644 12.6073 4.9927 13.7288L7.64039 17.5918C7.64039 17.5918 7.97697 18.2814 7.30447 18.238C6.73115 18.2055 4.11124 18.0739 2.87203 18.0122C2.45544 19.0802 2.10629 20.1753 1.82724 21.2894L5.45492 24.0986C5.45492 24.0986 6.00178 24.616 5.37094 24.7883C4.79696 24.9524 2.2597 25.6874 1.07208 26.0319C1.02447 26.6937 1 27.3568 1 28.0207C1 28.534 1.01521 29.0439 1.04298 29.5504C2.14068 29.9057 4.85516 30.7804 5.45492 30.9513C6.0851 31.1669 5.5389 31.6836 5.5389 31.6836L1.73929 34.3844C2.02958 35.6124 2.4032 36.8187 2.85947 37.9925C4.09338 37.9409 6.72917 37.825 7.30447 37.7599C7.97697 37.7172 7.64039 38.4068 7.64039 38.4068L4.98212 42.284C5.66917 43.4103 6.43557 44.4837 7.27603 45.4947C8.42927 45.037 10.8806 44.0545 11.4228 43.7941C12.053 43.5357 11.969 44.3108 11.969 44.3108L10.6465 48.8851C11.5332 49.6296 12.4663 50.3145 13.4397 50.9349C14.4011 50.1904 16.5674 48.5135 17.0548 48.1474C17.5587 47.7154 17.685 48.4918 17.685 48.4918L17.6122 53.096C18.7926 53.576 20.0047 53.968 21.2399 54.2684C21.9236 53.2058 23.3665 50.9532 23.6535 50.4311C24.0317 49.8283 24.3677 50.5172 24.3677 50.5172L25.8469 54.9552C26.3455 54.9844 26.8467 55 27.3519 55Z"/>
</mask>
<path fill-rule="evenodd" clip-rule="evenodd" d="M27.3519 55C28.0066 55 28.6559 54.9756 29.2994 54.9268L30.6721 50.4745C30.6721 50.4745 30.9664 49.7856 31.3446 50.3464C31.6713 50.8481 33.2649 53.1441 33.9599 54.1443C35.0682 53.8507 36.156 53.4831 37.2173 53.0431L37.1439 48.4064C37.1439 48.4064 37.2285 47.63 37.7754 48.0619C38.2304 48.4613 40.4171 50.1233 41.3866 50.8569C42.4294 50.1836 43.4246 49.4371 44.3655 48.6213L42.9022 44.2687C42.9022 44.2687 42.7759 43.4937 43.406 43.7521C43.9562 43.9507 46.4988 44.8404 47.6394 45.2391C48.4078 44.2898 49.1127 43.2882 49.7482 42.2399L47.0622 38.322C47.0622 38.322 46.7262 37.6324 47.3987 37.7185C47.9787 37.7517 50.6568 37.8609 51.8768 37.9097C52.3126 36.776 52.6716 35.6138 52.9527 34.4305L49.2476 31.7711C49.2476 31.7711 48.7014 31.211 49.3316 31.0388C49.9162 30.872 52.503 30.0386 53.6523 29.6663C53.6854 29.1191 53.7025 28.5706 53.7025 28.022C53.7025 27.4124 53.6814 26.8083 53.6424 26.2095C52.4587 25.8678 49.9082 25.1361 49.3323 25.0052C48.7021 24.8323 49.206 24.2722 49.206 24.2722L52.919 21.465C52.6359 20.3035 52.2775 19.1622 51.8457 18.0495C50.6131 18.1011 47.974 18.2163 47.3994 18.2821C46.7269 18.3248 47.0628 17.6352 47.0628 17.6352L49.7244 13.7525C49.0955 12.7185 48.3999 11.7278 47.6408 10.7887C46.5127 11.1786 43.8808 12.0892 43.3221 12.2913C42.6925 12.5496 42.8182 11.7739 42.8182 11.7739L44.3073 7.34742C43.3822 6.54797 42.4042 5.81497 41.3813 5.15316C40.4092 5.89837 38.229 7.57322 37.7754 7.93871C37.2279 8.36929 37.1439 7.59357 37.1439 7.59357L37.2173 2.96365C36.1593 2.52358 35.0742 2.15538 33.9685 1.86178C33.2563 2.88567 31.7077 5.11723 31.387 5.61154C31.0087 6.21436 30.6721 5.52543 30.6721 5.52543L29.3489 1.07724C28.6844 1.02571 28.0178 0.999939 27.3519 0.999939C26.7581 1.00062 26.165 1.02164 25.5731 1.063L24.2837 5.39524C24.2837 5.39524 23.9478 6.08552 23.5695 5.52475C23.2528 5.00534 21.7696 2.826 21.0554 1.78041C19.8982 2.07062 18.7615 2.44289 17.6539 2.89313L17.7273 7.55017C17.7273 7.55017 17.6016 8.28249 17.0971 7.85191C16.6084 7.48439 14.4289 5.79666 13.4727 5.0562C12.4709 5.69427 11.5114 6.40015 10.6015 7.16909L11.9697 11.6444C11.9697 11.6444 12.096 12.3767 11.4651 12.1184C10.9222 11.8885 8.43655 10.9623 7.27537 10.531C6.43954 11.5386 5.67644 12.6073 4.9927 13.7288L7.64039 17.5918C7.64039 17.5918 7.97697 18.2814 7.30447 18.238C6.73115 18.2055 4.11124 18.0739 2.87203 18.0122C2.45544 19.0802 2.10629 20.1753 1.82724 21.2894L5.45492 24.0986C5.45492 24.0986 6.00178 24.616 5.37094 24.7883C4.79696 24.9524 2.2597 25.6874 1.07208 26.0319C1.02447 26.6937 1 27.3568 1 28.0207C1 28.534 1.01521 29.0439 1.04298 29.5504C2.14068 29.9057 4.85516 30.7804 5.45492 30.9513C6.0851 31.1669 5.5389 31.6836 5.5389 31.6836L1.73929 34.3844C2.02958 35.6124 2.4032 36.8187 2.85947 37.9925C4.09338 37.9409 6.72917 37.825 7.30447 37.7599C7.97697 37.7172 7.64039 38.4068 7.64039 38.4068L4.98212 42.284C5.66917 43.4103 6.43557 44.4837 7.27603 45.4947C8.42927 45.037 10.8806 44.0545 11.4228 43.7941C12.053 43.5357 11.969 44.3108 11.969 44.3108L10.6465 48.8851C11.5332 49.6296 12.4663 50.3145 13.4397 50.9349C14.4011 50.1904 16.5674 48.5135 17.0548 48.1474C17.5587 47.7154 17.685 48.4918 17.685 48.4918L17.6122 53.096C18.7926 53.576 20.0047 53.968 21.2399 54.2684C21.9236 53.2058 23.3665 50.9532 23.6535 50.4311C24.0317 49.8283 24.3677 50.5172 24.3677 50.5172L25.8469 54.9552C26.3455 54.9844 26.8467 55 27.3519 55Z" fill="#347EC0"/>
<path d="M29.2994 54.9268L29.375 55.9239L30.0543 55.8724L30.255 55.2214L29.2994 54.9268ZM30.6721 50.4745L29.7525 50.0817L29.7319 50.1298L29.7165 50.1799L30.6721 50.4745ZM31.3446 50.3464L32.1827 49.8008L32.1782 49.7939L32.1737 49.7872L31.3446 50.3464ZM33.9599 54.1443L33.1387 54.7149L33.5386 55.2904L34.216 55.1109L33.9599 54.1443ZM37.2173 53.0431L37.6003 53.9668L38.2279 53.7066L38.2172 53.0272L37.2173 53.0431ZM37.1439 48.4064L36.1498 48.298L36.143 48.3599L36.144 48.4222L37.1439 48.4064ZM37.7754 48.0619L38.4351 47.3104L38.4156 47.2933L38.3952 47.2772L37.7754 48.0619ZM41.3866 50.8569L40.7831 51.6543L41.3411 52.0766L41.929 51.697L41.3866 50.8569ZM44.3655 48.6213L45.0206 49.3769L45.527 48.9379L45.3134 48.3027L44.3655 48.6213ZM42.9022 44.2687L41.9152 44.4296L41.9283 44.5101L41.9543 44.5874L42.9022 44.2687ZM43.406 43.7521L43.0267 44.6773L43.0464 44.6854L43.0664 44.6926L43.406 43.7521ZM47.6394 45.2391L47.3095 46.1831L47.9739 46.4153L48.4167 45.8682L47.6394 45.2391ZM49.7482 42.2399L50.6034 42.7583L50.9378 42.2066L50.573 41.6745L49.7482 42.2399ZM47.0622 38.322L46.1631 38.7599L46.1955 38.8264L46.2374 38.8875L47.0622 38.322ZM47.3987 37.7185L47.2717 38.7104L47.3065 38.7149L47.3415 38.7169L47.3987 37.7185ZM51.8768 37.9097L51.8368 38.9089L52.5531 38.9376L52.8102 38.2685L51.8768 37.9097ZM52.9527 34.4305L53.9256 34.6616L54.0806 34.0092L53.5358 33.6181L52.9527 34.4305ZM49.2476 31.7711L48.5317 32.4693L48.5931 32.5322L48.6645 32.5835L49.2476 31.7711ZM49.3316 31.0388L49.5953 32.0035L49.606 32.0004L49.3316 31.0388ZM53.6523 29.6663L53.9604 30.6177L54.6093 30.4075L54.6505 29.7267L53.6523 29.6663ZM53.6424 26.2095L54.6403 26.1445L54.5946 25.4436L53.9198 25.2488L53.6424 26.2095ZM49.3323 25.0052L49.0677 25.9696L49.0891 25.9755L49.1107 25.9804L49.3323 25.0052ZM49.206 24.2722L48.6029 23.4746L48.5265 23.5323L48.4625 23.6034L49.206 24.2722ZM52.919 21.465L53.522 22.2627L54.046 21.8665L53.8905 21.2283L52.919 21.465ZM51.8457 18.0495L52.778 17.6877L52.5191 17.0205L51.804 17.0504L51.8457 18.0495ZM47.3994 18.2821L47.4628 19.2801L47.488 19.2785L47.5131 19.2756L47.3994 18.2821ZM47.0628 17.6352L46.238 17.0698L46.1962 17.1308L46.1638 17.1973L47.0628 17.6352ZM49.7244 13.7525L50.5492 14.318L50.9145 13.785L50.5788 13.2329L49.7244 13.7525ZM47.6408 10.7887L48.4185 10.16L47.9773 9.6143L47.3141 9.84352L47.6408 10.7887ZM43.3221 12.2913L42.982 11.3509L42.962 11.3581L42.9424 11.3662L43.3221 12.2913ZM42.8182 11.7739L41.8704 11.4551L41.8442 11.5329L41.8311 11.614L42.8182 11.7739ZM44.3073 7.34742L45.2551 7.66628L45.4693 7.02985L44.9612 6.5908L44.3073 7.34742ZM41.3813 5.15316L41.9244 4.31355L41.3324 3.93055L40.7729 4.35954L41.3813 5.15316ZM37.7754 7.93871L38.3936 8.72481L38.4028 8.71741L37.7754 7.93871ZM37.1439 7.59357L36.144 7.57771L36.143 7.63963L36.1497 7.7012L37.1439 7.59357ZM37.2173 2.96365L38.2172 2.9795L38.2279 2.30096L37.6013 2.04034L37.2173 2.96365ZM33.9685 1.86178L34.2252 0.895274L33.5478 0.715387L33.1476 1.29076L33.9685 1.86178ZM31.387 5.61154L30.548 5.06727L30.5439 5.07363L30.5399 5.08005L31.387 5.61154ZM30.6721 5.52543L29.7136 5.81055L29.7373 5.88996L29.7736 5.9644L30.6721 5.52543ZM29.3489 1.07724L30.3074 0.792121L30.1115 0.133368L29.4263 0.0802329L29.3489 1.07724ZM27.3519 0.999939V-6.16312e-05L27.3508 -6.03795e-05L27.3519 0.999939ZM25.5731 1.063L25.5034 0.0654336L24.8123 0.113734L24.6147 0.777725L25.5731 1.063ZM24.2837 5.39524L25.1829 5.83282L25.2187 5.75909L25.2421 5.68051L24.2837 5.39524ZM23.5695 5.52475L22.7157 6.0454L22.7277 6.06495L22.7405 6.08394L23.5695 5.52475ZM21.0554 1.78041L21.8812 1.21639L21.4881 0.640919L20.8121 0.810445L21.0554 1.78041ZM17.6539 2.89313L17.2773 1.96675L16.6432 2.2245L16.654 2.90889L17.6539 2.89313ZM17.7273 7.55017L18.7129 7.71926L18.7286 7.6275L18.7271 7.53441L17.7273 7.55017ZM17.0971 7.85191L17.7462 7.09125L17.7228 7.07124L17.6982 7.05271L17.0971 7.85191ZM13.4727 5.0562L14.085 4.26555L13.5288 3.83486L12.9355 4.21275L13.4727 5.0562ZM10.6015 7.16909L9.95605 6.4053L9.45244 6.83089L9.64521 7.46144L10.6015 7.16909ZM11.9697 11.6444L12.9551 11.4744L12.9444 11.4123L12.926 11.352L11.9697 11.6444ZM11.4651 12.1184L11.0752 13.0393L11.0861 13.0438L11.4651 12.1184ZM7.27537 10.531L7.62353 9.59356L6.95858 9.3466L6.50571 9.89255L7.27537 10.531ZM4.9927 13.7288L4.13886 13.2083L3.80214 13.7606L4.16785 14.2942L4.9927 13.7288ZM7.64039 17.5918L8.53906 17.1532L8.50681 17.0871L8.46524 17.0265L7.64039 17.5918ZM7.30447 18.238L7.36887 17.2401L7.36115 17.2396L7.30447 18.238ZM2.87203 18.0122L2.92176 17.0135L2.20222 16.9776L1.9404 17.6488L2.87203 18.0122ZM1.82724 21.2894L0.857205 21.0464L0.698488 21.6801L1.21496 22.08L1.82724 21.2894ZM5.45492 24.0986L6.14217 23.3722L6.10627 23.3383L6.06719 23.308L5.45492 24.0986ZM5.37094 24.7883L5.10754 23.8235L5.09606 23.8268L5.37094 24.7883ZM1.07208 26.0319L0.793514 25.0714L0.12463 25.2654L0.0746553 25.9601L1.07208 26.0319ZM1.04298 29.5504L0.0444818 29.6051L0.0820568 30.2904L0.735023 30.5018L1.04298 29.5504ZM5.45492 30.9513L5.77866 30.0052L5.75399 29.9967L5.72892 29.9896L5.45492 30.9513ZM5.5389 31.6836L6.11826 32.4987L6.17528 32.4582L6.22611 32.4101L5.5389 31.6836ZM1.73929 34.3844L1.15993 33.5693L0.611246 33.9593L0.766113 34.6145L1.73929 34.3844ZM2.85947 37.9925L1.92741 38.3548L2.18656 39.0214L2.9012 38.9916L2.85947 37.9925ZM7.30447 37.7599L7.24107 36.7619L7.2165 36.7635L7.19204 36.7662L7.30447 37.7599ZM7.64039 38.4068L8.46516 38.9722L8.50678 38.9115L8.53906 38.8454L7.64039 38.4068ZM4.98212 42.284L4.15735 41.7185L3.7914 42.2523L4.12842 42.8048L4.98212 42.284ZM7.27603 45.4947L6.50705 46.134L6.97074 46.6918L7.64493 46.4242L7.27603 45.4947ZM11.4228 43.7941L11.0435 42.8688L11.0164 42.8799L10.9899 42.8926L11.4228 43.7941ZM11.969 44.3108L12.9297 44.5885L12.9538 44.505L12.9632 44.4185L11.969 44.3108ZM10.6465 48.8851L9.68583 48.6074L9.50509 49.2325L10.0035 49.651L10.6465 48.8851ZM13.4397 50.9349L12.9022 51.7782L13.4955 52.1564L14.0519 51.7256L13.4397 50.9349ZM17.0548 48.1474L17.6555 48.9468L17.6812 48.9275L17.7056 48.9066L17.0548 48.1474ZM17.685 48.4918L18.6848 48.5076L18.6862 48.4189L18.672 48.3312L17.685 48.4918ZM17.6122 53.096L16.6123 53.0802L16.6015 53.7644L17.2355 54.0223L17.6122 53.096ZM21.2399 54.2684L21.0036 55.24L21.6955 55.4083L22.0808 54.8095L21.2399 54.2684ZM23.6535 50.4311L22.8064 49.8996L22.7911 49.9241L22.7772 49.9494L23.6535 50.4311ZM24.3677 50.5172L25.3164 50.201L25.2955 50.1383L25.2665 50.079L24.3677 50.5172ZM25.8469 54.9552L24.8982 55.2715L25.1124 55.914L25.7885 55.9535L25.8469 54.9552ZM27.3519 56C28.0315 56 28.7061 55.9747 29.375 55.9239L29.2237 53.9296C28.6058 53.9765 27.9817 54 27.3519 54V56ZM30.255 55.2214L31.6277 50.7692L29.7165 50.1799L28.3437 54.6321L30.255 55.2214ZM30.6721 50.4745C31.5918 50.8673 31.5916 50.8676 31.5915 50.868C31.5914 50.8681 31.5913 50.8684 31.5912 50.8686C31.591 50.8691 31.5908 50.8695 31.5906 50.8699C31.5903 50.8708 31.5899 50.8716 31.5896 50.8724C31.5889 50.8739 31.5883 50.8753 31.5877 50.8767C31.5865 50.8793 31.5856 50.8814 31.5848 50.8832C31.5832 50.8867 31.5822 50.8888 31.5817 50.8897C31.5812 50.8907 31.5811 50.8909 31.5812 50.8907C31.5813 50.8906 31.5813 50.8905 31.5814 50.8903C31.5815 50.8902 31.5815 50.8901 31.5815 50.8901C31.5815 50.8902 31.5814 50.8903 31.5812 50.8907C31.5809 50.891 31.5805 50.8917 31.5799 50.8926C31.5788 50.8942 31.5764 50.8976 31.5725 50.9026C31.5663 50.9106 31.5471 50.9343 31.512 50.9639C31.4503 51.0161 31.23 51.1718 30.906 51.1146C30.6043 51.0613 30.4914 50.8697 30.5156 50.9055L32.1737 49.7872C32.0087 49.5427 31.7172 49.2269 31.254 49.1451C30.7684 49.0593 30.4036 49.2821 30.221 49.4364C30.0401 49.5893 29.925 49.7637 29.8665 49.8611C29.8334 49.9164 29.8076 49.9654 29.7894 50.0023C29.7801 50.021 29.7724 50.0373 29.7663 50.0506C29.7632 50.0573 29.7606 50.0633 29.7583 50.0684C29.7571 50.071 29.7561 50.0735 29.7551 50.0757C29.7546 50.0768 29.7542 50.0778 29.7537 50.0788C29.7535 50.0793 29.7533 50.0798 29.7531 50.0803C29.753 50.0806 29.7529 50.0809 29.7528 50.081C29.7527 50.0814 29.7525 50.0817 30.6721 50.4745ZM30.5066 50.8919C30.844 51.4103 32.4511 53.7254 33.1387 54.7149L34.7811 53.5736C34.0788 52.5629 32.4986 50.286 32.1827 49.8008L30.5066 50.8919ZM34.216 55.1109C35.3674 54.8059 36.4976 54.424 37.6003 53.9668L36.8343 52.1193C35.8143 52.5422 34.769 52.8954 33.7038 53.1776L34.216 55.1109ZM38.2172 53.0272L38.1438 48.3905L36.144 48.4222L36.2174 53.0589L38.2172 53.0272ZM37.1439 48.4064C38.138 48.5148 38.138 48.5151 38.1379 48.5155C38.1379 48.5156 38.1379 48.516 38.1379 48.5162C38.1378 48.5167 38.1377 48.5171 38.1377 48.5176C38.1376 48.5185 38.1375 48.5193 38.1374 48.5202C38.1372 48.5218 38.137 48.5234 38.1369 48.5247C38.1365 48.5275 38.1362 48.5298 38.136 48.5315C38.1355 48.5351 38.1352 48.537 38.1351 48.5375C38.135 48.5382 38.1353 48.5363 38.1359 48.5339C38.1367 48.531 38.1362 48.5339 38.1329 48.5424C38.1302 48.5495 38.12 48.575 38.0973 48.6106C38.0583 48.6716 37.9023 48.8787 37.5866 48.9236C37.2864 48.9662 37.1221 48.8202 37.1556 48.8467L38.3952 47.2772C38.1553 47.0876 37.7753 46.8767 37.3054 46.9434C36.82 47.0124 36.5404 47.3326 36.4119 47.5338C36.2836 47.7345 36.2236 47.9366 36.1954 48.0497C36.1795 48.1134 36.169 48.1688 36.1621 48.2102C36.1586 48.2312 36.156 48.2493 36.154 48.264C36.153 48.2713 36.1521 48.2779 36.1515 48.2836C36.1511 48.2864 36.1508 48.2891 36.1505 48.2915C36.1504 48.2927 36.1503 48.2938 36.1501 48.2949C36.1501 48.2954 36.15 48.296 36.15 48.2965C36.1499 48.2968 36.1499 48.2971 36.1499 48.2973C36.1498 48.2976 36.1498 48.298 37.1439 48.4064ZM37.1157 48.8134C37.6062 49.2441 39.8371 50.9384 40.7831 51.6543L41.99 50.0596C40.9972 49.3081 38.8545 47.6785 38.4351 47.3104L37.1157 48.8134ZM41.929 51.697C43.0112 50.9983 44.0441 50.2235 45.0206 49.3769L43.7105 47.8657C42.8051 48.6507 41.8475 49.369 40.8441 50.0169L41.929 51.697ZM45.3134 48.3027L43.85 43.9501L41.9543 44.5874L43.4177 48.94L45.3134 48.3027ZM42.9022 44.2687C43.8891 44.1079 43.8892 44.1083 43.8893 44.1086C43.8893 44.1087 43.8893 44.1091 43.8894 44.1093C43.8894 44.1098 43.8895 44.1102 43.8896 44.1106C43.8897 44.1115 43.8899 44.1124 43.89 44.1132C43.8902 44.1148 43.8905 44.1162 43.8907 44.1176C43.8911 44.1202 43.8914 44.1223 43.8916 44.124C43.892 44.1273 43.8922 44.1289 43.8922 44.1291C43.8923 44.1294 43.8922 44.1286 43.8921 44.1272C43.892 44.1258 43.8919 44.1242 43.8919 44.1226C43.8912 44.1013 43.896 44.1311 43.8776 44.1941C43.8604 44.253 43.7749 44.4925 43.4892 44.6277C43.2072 44.7612 42.9981 44.6656 43.0267 44.6773L43.7854 42.8268C43.4989 42.7093 43.0693 42.6138 42.6337 42.8199C42.1945 43.0277 42.0224 43.4125 41.958 43.633C41.8923 43.8574 41.8893 44.0648 41.8927 44.1807C41.8946 44.2458 41.8993 44.3014 41.9037 44.3428C41.9059 44.3637 41.9082 44.3817 41.9102 44.3962C41.9112 44.4035 41.9121 44.4099 41.913 44.4155C41.9134 44.4183 41.9138 44.4209 41.9142 44.4232C41.9143 44.4244 41.9145 44.4255 41.9147 44.4266C41.9148 44.4271 41.9149 44.4276 41.9149 44.4281C41.915 44.4284 41.915 44.4287 41.9151 44.4289C41.9151 44.4292 41.9152 44.4296 42.9022 44.2687ZM43.0664 44.6926C43.6229 44.8936 46.1727 45.7857 47.3095 46.1831L47.9694 44.2951C46.8248 43.895 44.2896 43.0079 43.7457 42.8115L43.0664 44.6926ZM48.4167 45.8682C49.2133 44.884 49.9443 43.8455 50.6034 42.7583L48.8931 41.7216C48.2812 42.731 47.6023 43.6955 46.8622 44.6099L48.4167 45.8682ZM50.573 41.6745L47.8869 37.7566L46.2374 38.8875L48.9234 42.8054L50.573 41.6745ZM47.0622 38.322C47.9612 37.8841 47.9613 37.8844 47.9615 37.8847C47.9615 37.8848 47.9617 37.8851 47.9618 37.8854C47.962 37.8858 47.9622 37.8862 47.9624 37.8866C47.9628 37.8874 47.9631 37.8881 47.9635 37.8889C47.9642 37.8904 47.9648 37.8917 47.9654 37.8929C47.9666 37.8954 47.9675 37.8974 47.9682 37.899C47.9697 37.9021 47.9704 37.9038 47.9706 37.9044C47.9708 37.9049 47.9701 37.9031 47.9694 37.901C47.9685 37.8982 47.9697 37.9011 47.9715 37.9102C47.9731 37.9179 47.9783 37.9454 47.9783 37.9885C47.9782 38.0595 47.9591 38.3311 47.7024 38.5449C47.4589 38.7477 47.2301 38.7051 47.2717 38.7104L47.5258 36.7266C47.2312 36.6889 46.7922 36.7001 46.4224 37.0081C46.0396 37.327 45.9784 37.7548 45.9783 37.9875C45.9781 38.2224 46.0352 38.4224 46.071 38.5303C46.0912 38.5914 46.1115 38.6428 46.1275 38.6807C46.1355 38.6999 46.1428 38.7164 46.1489 38.7296C46.1519 38.7362 46.1546 38.7421 46.157 38.7471C46.1582 38.7497 46.1593 38.752 46.1603 38.7541C46.1609 38.7552 46.1613 38.7562 46.1618 38.7572C46.162 38.7577 46.1623 38.7581 46.1625 38.7586C46.1626 38.7588 46.1628 38.7592 46.1628 38.7593C46.163 38.7596 46.1631 38.7599 47.0622 38.322ZM47.3415 38.7169C47.9326 38.7507 50.6234 38.8604 51.8368 38.9089L51.9168 36.9105C50.6902 36.8615 48.0247 36.7527 47.4559 36.7202L47.3415 38.7169ZM52.8102 38.2685C53.2621 37.0928 53.6343 35.8879 53.9256 34.6616L51.9797 34.1994C51.7089 35.3396 51.363 36.4591 50.9434 37.551L52.8102 38.2685ZM53.5358 33.6181L49.8307 30.9587L48.6645 32.5835L52.3696 35.2429L53.5358 33.6181ZM49.2476 31.7711C49.9636 31.0729 49.9638 31.0732 49.9641 31.0734C49.9641 31.0735 49.9644 31.0738 49.9645 31.0739C49.9649 31.0743 49.9652 31.0746 49.9655 31.0749C49.9661 31.0755 49.9667 31.0761 49.9672 31.0767C49.9683 31.0778 49.9693 31.0789 49.9702 31.0799C49.9721 31.0818 49.9735 31.0833 49.9746 31.0845C49.9768 31.0868 49.9777 31.0879 49.9777 31.0879C49.9778 31.088 49.9771 31.0872 49.976 31.0859C49.9749 31.0845 49.9736 31.0829 49.9724 31.0813C49.9593 31.0638 49.976 31.0799 49.9949 31.1328C50.0111 31.1782 50.0805 31.3995 49.9515 31.6641C49.8878 31.7948 49.7985 31.8843 49.721 31.9386C49.6492 31.9889 49.597 32.0029 49.5952 32.0034L49.068 30.0742C48.7568 30.1592 48.3644 30.3556 48.1538 30.7876C47.95 31.2056 48.0377 31.5993 48.1117 31.8063C48.1884 32.0207 48.3022 32.1876 48.3719 32.2805C48.4105 32.3321 48.4459 32.3745 48.473 32.4055C48.4868 32.4212 48.4989 32.4344 48.5087 32.4451C48.5137 32.4504 48.5181 32.4551 48.5219 32.4591C48.5238 32.4611 48.5256 32.463 48.5273 32.4647C48.5281 32.4655 48.5289 32.4663 48.5296 32.4671C48.53 32.4675 48.5303 32.4679 48.5307 32.4682C48.5309 32.4684 48.5311 32.4687 48.5312 32.4688C48.5314 32.469 48.5317 32.4693 49.2476 31.7711ZM49.606 32.0004C50.2126 31.8273 52.8236 30.9859 53.9604 30.6177L53.3441 28.715C52.1824 29.0913 49.6198 29.9166 49.0572 30.0772L49.606 32.0004ZM54.6505 29.7267C54.6847 29.1601 54.7025 28.5914 54.7025 28.022H52.7025C52.7025 28.5497 52.686 29.0781 52.6541 29.606L54.6505 29.7267ZM54.7025 28.022C54.7025 27.3893 54.6806 26.7634 54.6403 26.1445L52.6445 26.2745C52.6822 26.8531 52.7025 27.4356 52.7025 28.022H54.7025ZM53.9198 25.2488C52.7584 24.9134 50.1665 24.1693 49.5538 24.0301L49.1107 25.9804C49.65 26.1029 52.1591 26.8221 53.365 27.1703L53.9198 25.2488ZM49.5969 24.0409C49.5979 24.0412 49.645 24.0539 49.7109 24.099C49.7816 24.1474 49.8643 24.2269 49.9271 24.3435C50.0567 24.5842 50.0098 24.7956 49.9927 24.8542C49.9753 24.9139 49.9561 24.9364 49.9651 24.9232C49.9661 24.9217 49.9668 24.9209 49.9658 24.9221C49.9652 24.9229 49.9637 24.9247 49.9611 24.9277C49.9599 24.9292 49.9583 24.9311 49.9563 24.9333C49.9554 24.9344 49.9543 24.9356 49.9532 24.9369C49.9526 24.9375 49.952 24.9382 49.9514 24.9389C49.951 24.9392 49.9507 24.9396 49.9504 24.9399C49.9502 24.9401 49.95 24.9404 49.9499 24.9405C49.9497 24.9408 49.9494 24.9411 49.206 24.2722C48.4625 23.6034 48.4623 23.6037 48.462 23.604C48.4619 23.6041 48.4617 23.6044 48.4615 23.6046C48.4612 23.605 48.4608 23.6054 48.4604 23.6058C48.4597 23.6066 48.4589 23.6075 48.4581 23.6084C48.4564 23.6103 48.4547 23.6123 48.4528 23.6144C48.449 23.6188 48.4446 23.6238 48.4398 23.6294C48.4302 23.6407 48.4185 23.6547 48.4053 23.6712C48.3792 23.7037 48.3455 23.748 48.3091 23.8017C48.2433 23.8989 48.1375 24.0723 48.0729 24.2936C48.0086 24.5138 47.9539 24.8977 48.1663 25.292C48.3825 25.6934 48.7553 25.8839 49.0677 25.9696L49.5969 24.0409ZM49.8091 25.0699L53.522 22.2627L52.3159 20.6673L48.6029 23.4746L49.8091 25.0699ZM53.8905 21.2283C53.5972 20.0244 53.2257 18.8415 52.778 17.6877L50.9135 18.4113C51.3294 19.483 51.6747 20.5825 51.9474 21.7017L53.8905 21.2283ZM51.804 17.0504C50.6011 17.1007 47.9072 17.2175 47.2857 17.2886L47.5131 19.2756C48.0409 19.2152 50.6252 19.1014 51.8875 19.0486L51.804 17.0504ZM47.336 17.2841C47.3133 17.2856 47.5278 17.2657 47.744 17.4667C47.962 17.6693 47.9789 17.9078 47.9789 17.9742C47.979 18.0414 47.9655 18.0709 47.971 18.0539C47.9717 18.0519 47.9723 18.0505 47.9719 18.0515C47.9716 18.0522 47.9708 18.0541 47.9692 18.0575C47.9685 18.0592 47.9675 18.0614 47.9663 18.0639C47.9656 18.0652 47.965 18.0666 47.9642 18.0682C47.9639 18.0689 47.9635 18.0697 47.9631 18.0706C47.9629 18.071 47.9627 18.0714 47.9625 18.0718C47.9624 18.072 47.9622 18.0724 47.9622 18.0725C47.962 18.0728 47.9618 18.0731 47.0628 17.6352C46.1638 17.1973 46.1636 17.1976 46.1635 17.198C46.1634 17.1981 46.1633 17.1984 46.1631 17.1987C46.1629 17.1991 46.1627 17.1996 46.1624 17.2001C46.162 17.2011 46.1614 17.2022 46.1609 17.2033C46.1599 17.2055 46.1587 17.2079 46.1575 17.2105C46.1551 17.2156 46.1523 17.2216 46.1492 17.2284C46.1431 17.2419 46.1357 17.2586 46.1275 17.2781C46.1113 17.3166 46.091 17.3687 46.0706 17.4307C46.0342 17.5417 45.9788 17.7409 45.9789 17.9752C45.979 18.2087 46.038 18.6115 46.3822 18.9314C46.7245 19.2497 47.1493 19.3 47.4628 19.2801L47.336 17.2841ZM47.8876 18.2006L50.5492 14.318L48.8996 13.1871L46.238 17.0698L47.8876 18.2006ZM50.5788 13.2329C49.9272 12.1614 49.206 11.1343 48.4185 10.16L46.8631 11.4173C47.5938 12.3213 48.2639 13.2755 48.87 14.2721L50.5788 13.2329ZM47.3141 9.84352C46.1916 10.2315 43.5495 11.1457 42.982 11.3509L43.6621 13.2317C44.2122 13.0328 46.8337 12.1256 47.9674 11.7338L47.3141 9.84352ZM42.9424 11.3662C42.9144 11.3777 43.1239 11.282 43.4062 11.4159C43.6916 11.5512 43.7768 11.7904 43.7938 11.8487C43.8122 11.9114 43.8074 11.9408 43.808 11.9194C43.808 11.9178 43.8081 11.9162 43.8082 11.9147C43.8083 11.9132 43.8084 11.9125 43.8084 11.9127C43.8084 11.9129 43.8082 11.9145 43.8078 11.9177C43.8075 11.9194 43.8072 11.9215 43.8068 11.9242C43.8066 11.9255 43.8064 11.9269 43.8062 11.9286C43.806 11.9294 43.8059 11.9302 43.8058 11.9311C43.8057 11.9315 43.8056 11.9319 43.8055 11.9324C43.8055 11.9326 43.8055 11.933 43.8054 11.9331C43.8054 11.9334 43.8053 11.9338 42.8182 11.7739C41.8311 11.614 41.831 11.6144 41.8309 11.6148C41.8309 11.6149 41.8309 11.6152 41.8308 11.6155C41.8307 11.616 41.8307 11.6165 41.8306 11.617C41.8304 11.6181 41.8302 11.6192 41.83 11.6204C41.8297 11.6227 41.8293 11.6253 41.8289 11.6281C41.828 11.6337 41.8271 11.6401 41.8261 11.6474C41.8241 11.6619 41.8219 11.6799 41.8196 11.7008C41.8152 11.7421 41.8106 11.7978 41.8088 11.8628C41.8055 11.9788 41.8087 12.186 41.8743 12.4102C41.9386 12.6302 42.1104 13.0149 42.5493 13.223C42.9851 13.4296 43.415 13.3341 43.7017 13.2164L42.9424 11.3662ZM43.766 12.0928L45.2551 7.66628L43.3595 7.02856L41.8704 11.4551L43.766 12.0928ZM44.9612 6.5908C44.0011 5.7611 42.9861 5.00038 41.9244 4.31355L40.8381 5.99278C41.8224 6.62956 42.7634 7.33484 43.6535 8.10404L44.9612 6.5908ZM40.7729 4.35954C39.8082 5.09906 37.6139 6.78467 37.148 7.16001L38.4028 8.71741C38.8442 8.36177 41.0102 6.69768 41.9897 5.94678L40.7729 4.35954ZM37.1572 7.15265C37.124 7.17879 37.2882 7.0336 37.5877 7.07656C37.9026 7.12173 38.0582 7.32834 38.0972 7.38955C38.12 7.4252 38.1301 7.45067 38.1329 7.45787C38.1362 7.46638 38.1367 7.46939 38.136 7.46649C38.1354 7.46423 38.1351 7.46239 38.1352 7.46304C38.1353 7.46365 38.1356 7.46555 38.1361 7.4691C38.1363 7.47089 38.1366 7.47315 38.1369 7.47592C38.1371 7.47731 38.1373 7.47884 38.1375 7.4805C38.1376 7.48133 38.1377 7.4822 38.1378 7.48311C38.1378 7.48356 38.1379 7.48402 38.1379 7.48449C38.138 7.48473 38.138 7.48509 38.138 7.48521C38.1381 7.48557 38.1381 7.48594 37.1439 7.59357C36.1497 7.7012 36.1497 7.70157 36.1498 7.70194C36.1498 7.70207 36.1498 7.70245 36.1499 7.70271C36.1499 7.70323 36.15 7.70376 36.1501 7.70431C36.1502 7.7054 36.1503 7.70655 36.1504 7.70775C36.1507 7.71016 36.151 7.71279 36.1514 7.71563C36.1521 7.72132 36.1529 7.72788 36.1539 7.73525C36.1558 7.74995 36.1585 7.76809 36.162 7.78907C36.1688 7.83047 36.1793 7.88586 36.1952 7.9496C36.2233 8.06272 36.2832 8.26482 36.4114 8.46566C36.5399 8.66697 36.8191 8.98678 37.3038 9.0563C37.773 9.12361 38.153 8.91391 38.3936 8.72476L37.1572 7.15265ZM38.1438 7.60942L38.2172 2.9795L36.2174 2.9478L36.144 7.57771L38.1438 7.60942ZM37.6013 2.04034C36.5021 1.58311 35.3744 1.20045 34.2252 0.895274L33.7119 2.82828C34.7739 3.11031 35.8165 3.46405 36.8333 3.88697L37.6013 2.04034ZM33.1476 1.29076C32.4428 2.30408 30.8802 4.55533 30.548 5.06727L32.2259 6.15582C32.5351 5.67912 34.0699 3.46726 34.7895 2.43279L33.1476 1.29076ZM30.5399 5.08005C30.5123 5.12407 30.6063 4.94574 30.884 4.87961C31.0243 4.84621 31.1588 4.85605 31.2698 4.88782C31.3735 4.91751 31.444 4.96229 31.4811 4.9896C31.5187 5.01732 31.5399 5.04041 31.5471 5.04856C31.5516 5.05358 31.5544 5.05714 31.5558 5.05893C31.5572 5.06076 31.5578 5.06174 31.5579 5.06186C31.558 5.06196 31.558 5.06199 31.558 5.06195C31.558 5.06193 31.5579 5.06191 31.5579 5.06189C31.5579 5.06188 31.5579 5.06188 31.5579 5.06187C31.5579 5.06186 31.5579 5.06186 31.5579 5.06186C31.5579 5.06186 31.5579 5.06188 31.558 5.06192C31.558 5.06196 31.558 5.06203 31.5581 5.06214C31.5582 5.06234 31.5584 5.06271 31.5587 5.06329C31.5594 5.06441 31.5606 5.06661 31.5625 5.07021C31.5634 5.07203 31.5646 5.07426 31.5659 5.07694C31.5666 5.07828 31.5673 5.07974 31.5681 5.08132C31.5685 5.08211 31.5689 5.08294 31.5693 5.08379C31.5695 5.08422 31.5698 5.08466 31.57 5.0851C31.5701 5.08532 31.5702 5.08566 31.5703 5.08577C31.5705 5.08611 31.5706 5.08646 30.6721 5.52543C29.7736 5.9644 29.7738 5.96475 29.774 5.9651C29.774 5.96522 29.7742 5.96558 29.7743 5.96582C29.7746 5.96631 29.7748 5.9668 29.7751 5.96732C29.7756 5.96834 29.7761 5.96941 29.7767 5.97053C29.7778 5.97277 29.779 5.97521 29.7803 5.97784C29.783 5.98308 29.786 5.98911 29.7895 5.99583C29.7965 6.00923 29.8054 6.02564 29.8159 6.04442C29.8368 6.08145 29.866 6.13047 29.9034 6.18545C29.9694 6.28275 30.098 6.45477 30.2943 6.59948C30.4969 6.74878 30.8741 6.9379 31.3474 6.82519C31.7945 6.71869 32.0725 6.40042 32.234 6.14304L30.5399 5.08005ZM31.6306 5.24031L30.3074 0.792121L28.3905 1.36236L29.7136 5.81055L31.6306 5.24031ZM29.4263 0.0802329C28.7359 0.0267024 28.0436 -6.10352e-05 27.3519 -6.10352e-05V1.99994C27.9921 1.99994 28.6328 2.02471 29.2716 2.07425L29.4263 0.0802329ZM27.3508 -6.03795e-05C26.7341 0.00064379 26.1181 0.0224732 25.5034 0.0654336L25.6429 2.06057C26.2118 2.0208 26.7821 2.00059 27.3531 1.99994L27.3508 -6.03795e-05ZM24.6147 0.777725L23.3252 5.10996L25.2421 5.68051L26.5316 1.34827L24.6147 0.777725ZM24.2837 5.39524C23.3845 4.95766 23.3847 4.95733 23.3848 4.957C23.3849 4.95689 23.385 4.95656 23.3851 4.95635C23.3854 4.95592 23.3856 4.9555 23.3858 4.95508C23.3862 4.95426 23.3866 4.95346 23.3869 4.9527C23.3877 4.95118 23.3884 4.94979 23.389 4.94852C23.3903 4.94597 23.3914 4.94389 23.3922 4.94223C23.3939 4.93893 23.3949 4.93711 23.3953 4.93642C23.3958 4.93552 23.3951 4.93686 23.3939 4.93859C23.3839 4.95354 23.3993 4.92406 23.4531 4.88205C23.5065 4.84037 23.708 4.70507 24.0054 4.75475C24.2982 4.80365 24.4131 4.98709 24.3986 4.96556L22.7405 6.08394C22.9151 6.3428 23.2138 6.65024 23.6759 6.72743C24.1427 6.80539 24.4992 6.60268 24.6838 6.45852C24.8689 6.31403 24.9918 6.14703 25.0566 6.05007C25.0929 5.99585 25.1213 5.94765 25.1417 5.91119C25.152 5.89272 25.1606 5.87661 25.1674 5.86348C25.1708 5.85689 25.1738 5.85101 25.1764 5.84588C25.1777 5.84332 25.1789 5.84095 25.1799 5.83877C25.1805 5.83768 25.181 5.83664 25.1815 5.83564C25.1817 5.83515 25.182 5.83466 25.1822 5.83419C25.1823 5.83396 25.1825 5.83361 25.1825 5.83349C25.1827 5.83315 25.1829 5.83282 24.2837 5.39524ZM24.4233 5.0041C24.089 4.456 22.5839 2.24527 21.8812 1.21639L20.2296 2.34442C20.9552 3.40674 22.4165 5.55469 22.7157 6.0454L24.4233 5.0041ZM20.8121 0.810445C19.6091 1.11215 18.4279 1.49904 17.2773 1.96675L18.0304 3.81952C19.0951 3.38674 20.1873 3.02909 21.2987 2.75037L20.8121 0.810445ZM16.654 2.90889L16.7274 7.56593L18.7271 7.53441L18.6537 2.87737L16.654 2.90889ZM17.7273 7.55017C16.7417 7.38108 16.7417 7.38071 16.7418 7.38034C16.7418 7.38023 16.7419 7.37986 16.7419 7.37963C16.742 7.37915 16.7421 7.37869 16.7422 7.37823C16.7423 7.37731 16.7425 7.37643 16.7426 7.37559C16.7429 7.37389 16.7432 7.37233 16.7435 7.37089C16.744 7.36802 16.7445 7.36563 16.7449 7.36367C16.7456 7.35978 16.7462 7.35742 16.7464 7.35623C16.7467 7.35506 16.7468 7.35469 16.7468 7.35485C16.7467 7.35491 16.7467 7.355 16.7467 7.35511C16.7467 7.35523 16.7466 7.35528 16.7466 7.35525C16.7467 7.35522 16.7467 7.35503 16.7468 7.35465C16.747 7.35428 16.7472 7.35362 16.7476 7.35268C16.7482 7.35095 16.7497 7.34726 16.7522 7.34182C16.7562 7.33313 16.7686 7.30725 16.7941 7.27241C16.8386 7.21146 17.0028 7.02136 17.3109 6.99118C17.608 6.96208 17.7677 7.10958 17.7462 7.09125L16.4479 8.61257C16.6787 8.80953 17.0434 9.02697 17.5059 8.98165C17.9794 8.93526 18.2697 8.64282 18.4087 8.4526C18.547 8.2634 18.6182 8.06964 18.6529 7.96048C18.6724 7.8991 18.6861 7.84555 18.6953 7.80536C18.7 7.78499 18.7038 7.76731 18.7066 7.75291C18.708 7.74569 18.7093 7.73924 18.7103 7.73362C18.7108 7.73081 18.7113 7.7282 18.7117 7.72581C18.7119 7.72461 18.7121 7.72347 18.7123 7.72237C18.7124 7.72183 18.7125 7.7213 18.7126 7.72078C18.7127 7.72052 18.7127 7.72014 18.7127 7.72001C18.7128 7.71963 18.7129 7.71926 17.7273 7.55017ZM17.6982 7.05271C17.2169 6.69076 15.0462 5.00991 14.085 4.26555L12.8604 5.84685C13.8116 6.58341 16 8.27803 16.496 8.65112L17.6982 7.05271ZM12.9355 4.21275C11.8959 4.87491 10.9002 5.60741 9.95605 6.4053L11.247 7.93288C12.1226 7.19289 13.0459 6.51363 14.0099 5.89965L12.9355 4.21275ZM9.64521 7.46144L11.0134 11.9368L12.926 11.352L11.5578 6.87673L9.64521 7.46144ZM11.9697 11.6444C10.9842 11.8144 10.9842 11.814 10.9841 11.8136C10.9841 11.8135 10.984 11.8131 10.984 11.8129C10.9839 11.8124 10.9838 11.8119 10.9837 11.8115C10.9836 11.8105 10.9834 11.8096 10.9833 11.8088C10.983 11.8071 10.9827 11.8055 10.9825 11.804C10.982 11.801 10.9816 11.7986 10.9813 11.7965C10.9808 11.7924 10.9804 11.7899 10.9803 11.7884C10.98 11.7862 10.98 11.7858 10.98 11.7855C10.98 11.7851 10.98 11.7836 10.98 11.781C10.9801 11.7785 10.9803 11.7737 10.981 11.7668C10.982 11.7555 10.9857 11.7239 10.9998 11.6791C11.0257 11.5963 11.1285 11.3551 11.4225 11.2315C11.6941 11.1173 11.8843 11.2094 11.8441 11.193L11.0861 13.0438C11.3614 13.1565 11.7724 13.254 12.1977 13.0751C12.6454 12.8869 12.8349 12.511 12.9082 12.2775C12.9797 12.0492 12.9826 11.8388 12.9791 11.7241C12.9771 11.6592 12.9722 11.6036 12.9675 11.5623C12.9651 11.5413 12.9627 11.5233 12.9605 11.5086C12.9594 11.5013 12.9584 11.4947 12.9575 11.489C12.9571 11.4862 12.9566 11.4835 12.9562 11.4811C12.956 11.4799 12.9558 11.4787 12.9557 11.4776C12.9556 11.477 12.9555 11.4765 12.9554 11.476C12.9553 11.4757 12.9553 11.4753 12.9553 11.4752C12.9552 11.4748 12.9551 11.4744 11.9697 11.6444ZM11.855 11.1975C11.2851 10.9562 8.76736 10.0184 7.62353 9.59356L6.92721 11.4684C8.10573 11.9061 10.5594 12.8208 11.0752 13.0392L11.855 11.1975ZM6.50571 9.89255C5.639 10.9374 4.84778 12.0454 4.13886 13.2083L5.84654 14.2494C6.50511 13.1691 7.24007 12.1399 8.04504 11.1694L6.50571 9.89255ZM4.16785 14.2942L6.81554 18.1572L8.46524 17.0265L5.81755 13.1635L4.16785 14.2942ZM7.64039 17.5918C6.74172 18.0304 6.74156 18.0301 6.74139 18.0298C6.74134 18.0297 6.74118 18.0293 6.74108 18.0291C6.74087 18.0287 6.74066 18.0283 6.74046 18.0279C6.74006 18.027 6.73968 18.0262 6.73931 18.0255C6.73858 18.0239 6.73791 18.0225 6.7373 18.0213C6.73608 18.0187 6.7351 18.0166 6.73432 18.0149C6.73278 18.0115 6.73196 18.0096 6.73166 18.0088C6.73126 18.0079 6.73188 18.0094 6.73256 18.0114C6.73817 18.0285 6.72465 17.9989 6.72462 17.9317C6.72458 17.8653 6.74122 17.626 6.96001 17.4228C7.1768 17.2213 7.392 17.2416 7.36887 17.2401L7.24007 19.236C7.55319 19.2562 7.9785 19.2065 8.32132 18.888C8.66615 18.5676 8.72473 18.164 8.72462 17.9307C8.7245 17.6965 8.66887 17.4973 8.63238 17.3864C8.61201 17.3245 8.59159 17.2724 8.57542 17.2339C8.56722 17.2144 8.55983 17.1977 8.55369 17.1843C8.55061 17.1775 8.54782 17.1715 8.54537 17.1663C8.54414 17.1637 8.543 17.1614 8.54195 17.1592C8.54142 17.1581 8.54092 17.157 8.54044 17.156C8.5402 17.1555 8.53996 17.155 8.53973 17.1546C8.53962 17.1543 8.53945 17.154 8.53939 17.1539C8.53923 17.1535 8.53906 17.1532 7.64039 17.5918ZM7.36115 17.2396C6.78335 17.2068 4.15852 17.075 2.92176 17.0135L2.8223 19.011C4.06395 19.0728 6.67896 19.2041 7.24779 19.2364L7.36115 17.2396ZM1.9404 17.6488C1.50846 18.7561 1.14649 19.8915 0.857205 21.0464L2.79727 21.5323C3.06609 20.4591 3.40242 19.4043 3.80366 18.3756L1.9404 17.6488ZM1.21496 22.08L4.84264 24.8893L6.06719 23.308L2.43951 20.4987L1.21496 22.08ZM5.45492 24.0986C4.76767 24.8251 4.76741 24.8248 4.76715 24.8246C4.76706 24.8245 4.76681 24.8243 4.76664 24.8241C4.7663 24.8238 4.76597 24.8235 4.76565 24.8232C4.765 24.8225 4.76438 24.8219 4.76378 24.8214C4.76259 24.8202 4.7615 24.8192 4.76051 24.8182C4.75853 24.8163 4.75692 24.8147 4.75564 24.8134C4.7531 24.8109 4.75173 24.8095 4.75124 24.809C4.75062 24.8083 4.75172 24.8095 4.75303 24.8111C4.76451 24.8253 4.74054 24.8014 4.7158 24.7369C4.69241 24.6759 4.61595 24.432 4.76112 24.1501C4.83016 24.016 4.92338 23.9294 4.99656 23.8801C5.03151 23.8565 5.06052 23.8422 5.079 23.8342C5.08839 23.8302 5.09564 23.8275 5.10035 23.8259C5.10272 23.8251 5.10453 23.8245 5.10572 23.8241C5.10692 23.8237 5.10754 23.8236 5.10756 23.8236L5.63432 25.7529C5.92723 25.673 6.321 25.4895 6.53927 25.0656C6.75934 24.6382 6.66444 24.2327 6.58319 24.0208C6.50059 23.8054 6.37934 23.6415 6.30799 23.5533C6.26789 23.5037 6.23119 23.4631 6.20314 23.4335C6.18892 23.4185 6.17642 23.4058 6.16618 23.3956C6.16104 23.3905 6.15644 23.3859 6.15243 23.3821C6.15042 23.3801 6.14856 23.3783 6.14684 23.3767C6.14599 23.3759 6.14517 23.3751 6.14439 23.3743C6.144 23.374 6.14362 23.3736 6.14325 23.3733C6.14307 23.3731 6.1428 23.3728 6.1427 23.3727C6.14244 23.3725 6.14217 23.3722 5.45492 24.0986ZM5.09606 23.8268C4.51973 23.9915 1.98001 24.7273 0.793514 25.0714L1.35064 26.9923C2.53939 26.6475 5.0742 25.9132 5.64582 25.7497L5.09606 23.8268ZM0.0746553 25.9601C0.0253727 26.6451 0 27.3322 0 28.0207H2C2 27.3814 2.02356 26.7422 2.0695 26.1036L0.0746553 25.9601ZM0 28.0207C0 28.5537 0.0157937 29.0819 0.0444818 29.6051L2.04148 29.4956C2.01462 29.0058 2 28.5142 2 28.0207H0ZM0.735023 30.5018C1.81968 30.8529 4.55896 31.7358 5.18092 31.913L5.72892 29.9896C5.15135 29.825 2.46167 28.9585 1.35094 28.599L0.735023 30.5018ZM5.13118 31.8974C5.13118 31.8974 5.13104 31.8974 5.13076 31.8973C5.13048 31.8972 5.13007 31.8971 5.12952 31.8968C5.12842 31.8964 5.12676 31.8958 5.12458 31.8949C5.12024 31.893 5.1136 31.8901 5.10505 31.8857C5.08812 31.8771 5.06215 31.8621 5.03128 31.8385C4.96652 31.7889 4.888 31.7066 4.83062 31.5858C4.71014 31.3321 4.77154 31.1157 4.79539 31.0513C4.81879 30.988 4.84225 30.9639 4.83288 30.9756C4.83225 30.9764 4.83188 30.9768 4.83321 30.9754C4.83406 30.9744 4.83578 30.9727 4.83866 30.9698C4.84011 30.9683 4.84189 30.9666 4.84404 30.9645C4.84512 30.9634 4.84629 30.9623 4.84756 30.9611C4.84819 30.9605 4.84886 30.9599 4.84954 30.9592C4.84989 30.9589 4.85024 30.9585 4.8506 30.9582C4.85077 30.958 4.85105 30.9578 4.85114 30.9577C4.85141 30.9574 4.85169 30.9572 5.5389 31.6836C6.22611 32.4101 6.22639 32.4098 6.22667 32.4096C6.22677 32.4095 6.22706 32.4092 6.22725 32.409C6.22764 32.4086 6.22804 32.4083 6.22845 32.4079C6.22927 32.4071 6.23013 32.4063 6.23103 32.4054C6.23282 32.4037 6.23476 32.4018 6.23685 32.3998C6.24103 32.3957 6.2458 32.3911 6.2511 32.3858C6.26167 32.3752 6.27451 32.3621 6.28907 32.3467C6.31781 32.3161 6.35519 32.2744 6.39591 32.2234C6.46927 32.1315 6.58989 31.9647 6.67107 31.7454C6.75269 31.5248 6.83248 31.1388 6.63717 30.7276C6.4419 30.3165 6.07986 30.1082 5.77866 30.0052L5.13118 31.8974ZM4.95954 30.8686L1.15993 33.5693L2.31865 35.1995L6.11826 32.4987L4.95954 30.8686ZM0.766113 34.6145C1.06686 35.8867 1.45411 37.1372 1.92741 38.3548L3.79152 37.6301C3.35228 36.5002 2.99231 35.3381 2.71247 34.1544L0.766113 34.6145ZM2.9012 38.9916C4.10663 38.9412 6.79563 38.8238 7.4169 38.7535L7.19204 36.7662C6.66271 36.8261 4.08013 36.9406 2.81774 36.9933L2.9012 38.9916ZM7.36786 38.7579C7.39073 38.7564 7.17578 38.7763 6.95942 38.575C6.74119 38.3719 6.72458 38.1331 6.72462 38.0668C6.72465 37.9997 6.73815 37.9702 6.73255 37.9872C6.73187 37.9893 6.73125 37.9907 6.73165 37.9898C6.73195 37.989 6.73277 37.9871 6.73432 37.9837C6.7351 37.982 6.73608 37.9799 6.7373 37.9773C6.73791 37.9761 6.73858 37.9746 6.73931 37.9731C6.73968 37.9723 6.74006 37.9716 6.74046 37.9707C6.74066 37.9703 6.74087 37.9699 6.74108 37.9695C6.74118 37.9692 6.74134 37.9689 6.74139 37.9688C6.74156 37.9685 6.74172 37.9681 7.64039 38.4068C8.53906 38.8454 8.53922 38.8451 8.53939 38.8447C8.53945 38.8446 8.53962 38.8442 8.53973 38.844C8.53996 38.8435 8.5402 38.8431 8.54044 38.8426C8.54092 38.8416 8.54142 38.8405 8.54195 38.8394C8.543 38.8372 8.54415 38.8348 8.54537 38.8322C8.54782 38.8271 8.55061 38.8211 8.55369 38.8143C8.55984 38.8009 8.56723 38.7842 8.57543 38.7647C8.5916 38.7262 8.61203 38.6741 8.6324 38.6122C8.66889 38.5012 8.7245 38.302 8.72462 38.0678C8.72473 37.8344 8.66618 37.4313 8.32192 37.1109C7.97953 36.7923 7.55446 36.742 7.24107 36.7619L7.36786 38.7579ZM6.81562 37.8413L4.15735 41.7185L5.80689 42.8495L8.46516 38.9722L6.81562 37.8413ZM4.12842 42.8048C4.84054 43.9722 5.6352 45.0852 6.50705 46.134L8.04502 44.8554C7.23594 43.8822 6.4978 42.8484 5.83582 41.7632L4.12842 42.8048ZM7.64493 46.4242C8.77446 45.9759 11.2727 44.9755 11.8557 44.6955L10.9899 42.8926C10.4885 43.1334 8.08409 44.0981 6.90714 44.5652L7.64493 46.4242ZM11.8021 44.7194C11.8194 44.7123 11.6266 44.7961 11.3637 44.6778C11.1027 44.5603 11.0116 44.351 10.9907 44.2925C10.9694 44.2329 10.9722 44.2038 10.9727 44.2225C10.9728 44.2253 10.9727 44.2273 10.9727 44.2266C10.9727 44.2259 10.9729 44.2239 10.9732 44.2203C10.9733 44.2184 10.9735 44.2161 10.9738 44.2133C10.9739 44.2118 10.9741 44.2103 10.9742 44.2086C10.9743 44.2077 10.9744 44.2069 10.9745 44.2059C10.9746 44.2055 10.9746 44.205 10.9747 44.2045C10.9747 44.2043 10.9747 44.2039 10.9747 44.2038C10.9748 44.2034 10.9748 44.2031 11.969 44.3108C12.9632 44.4185 12.9632 44.4181 12.9633 44.4178C12.9633 44.4176 12.9633 44.4172 12.9634 44.417C12.9634 44.4165 12.9635 44.4159 12.9635 44.4154C12.9636 44.4143 12.9638 44.4131 12.9639 44.4119C12.9641 44.4094 12.9644 44.4068 12.9647 44.4039C12.9652 44.3981 12.9658 44.3915 12.9664 44.384C12.9677 44.3692 12.969 44.3508 12.9701 44.3294C12.9722 44.2873 12.9738 44.2308 12.9719 44.165C12.9685 44.0464 12.9528 43.8396 12.8738 43.6187C12.795 43.3986 12.6068 43.044 12.1843 42.8539C11.7599 42.6629 11.3413 42.7467 11.0435 42.8688L11.8021 44.7194ZM11.0084 44.033L9.68583 48.6074L11.6071 49.1628L12.9297 44.5885L11.0084 44.033ZM10.0035 49.651C10.9235 50.4234 11.8918 51.1342 12.9022 51.7782L13.9772 50.0917C13.0408 49.4948 12.143 48.8358 11.2895 48.1193L10.0035 49.651ZM14.0519 51.7256C15.0184 50.9772 17.1757 49.3073 17.6555 48.9468L16.4541 47.3479C15.9591 47.7198 13.7839 49.4036 12.8274 50.1443L14.0519 51.7256ZM17.7056 48.9066C17.7055 48.9067 17.6965 48.9144 17.6783 48.9259C17.6602 48.9373 17.6304 48.954 17.5891 48.9701C17.5022 49.0039 17.3738 49.0307 17.2217 49.0085C16.9087 48.9629 16.7589 48.7599 16.7299 48.717C16.6961 48.667 16.6926 48.6414 16.6991 48.6633C16.7004 48.6677 16.7013 48.6714 16.7014 48.672C16.7014 48.6721 16.7012 48.6708 16.7006 48.6678C16.7003 48.6662 16.6999 48.6642 16.6995 48.6617C16.6993 48.6604 16.699 48.659 16.6988 48.6575C16.6986 48.6567 16.6985 48.6559 16.6984 48.655C16.6983 48.6546 16.6982 48.6542 16.6982 48.6537C16.6981 48.6535 16.6981 48.6532 16.698 48.6531C16.698 48.6527 16.6979 48.6524 17.685 48.4918C18.672 48.3312 18.6719 48.3309 18.6719 48.3305C18.6718 48.3304 18.6718 48.3301 18.6717 48.3298C18.6717 48.3293 18.6716 48.3288 18.6715 48.3283C18.6713 48.3273 18.6711 48.3262 18.6709 48.325C18.6706 48.3227 18.6701 48.3202 18.6697 48.3175C18.6687 48.3121 18.6676 48.3057 18.6662 48.2986C18.6636 48.2845 18.6601 48.2669 18.6557 48.2466C18.6469 48.2065 18.634 48.1528 18.6156 48.0912C18.5827 47.9811 18.516 47.7884 18.3877 47.5982C18.2642 47.4152 17.9884 47.0991 17.51 47.0294C17.0252 46.9588 16.6406 47.1853 16.4039 47.3881L17.7056 48.9066ZM16.6851 48.476L16.6123 53.0802L18.6121 53.1118L18.6848 48.5076L16.6851 48.476ZM17.2355 54.0223C18.4612 54.5208 19.7202 54.9279 21.0036 55.24L21.4762 53.2967C20.2891 53.008 19.1239 52.6313 17.989 52.1697L17.2355 54.0223ZM22.0808 54.8095C22.7495 53.7703 24.2211 51.4745 24.5298 50.9128L22.7772 49.9494C22.5119 50.432 21.0977 52.6413 20.399 53.7272L22.0808 54.8095ZM24.5006 50.9626C24.5283 50.9184 24.4343 51.0968 24.1565 51.163C24.0161 51.1965 23.8814 51.1866 23.7702 51.1548C23.6663 51.125 23.5957 51.0801 23.5586 51.0527C23.5209 51.0249 23.4996 51.0017 23.4924 50.9936C23.4879 50.9885 23.4851 50.9849 23.4837 50.9831C23.4823 50.9813 23.4816 50.9803 23.4816 50.9802C23.4815 50.9801 23.4815 50.98 23.4815 50.9801C23.4815 50.9801 23.4815 50.9801 23.4815 50.9801C23.4815 50.9801 23.4815 50.9801 23.4815 50.9801C23.4815 50.9801 23.4815 50.9801 23.4815 50.9801C23.4815 50.98 23.4814 50.98 23.4814 50.9799C23.4813 50.9797 23.481 50.9793 23.4807 50.9787C23.4801 50.9776 23.4789 50.9754 23.477 50.9718C23.476 50.9699 23.4749 50.9677 23.4735 50.965C23.4729 50.9637 23.4721 50.9622 23.4713 50.9606C23.471 50.9599 23.4706 50.959 23.4701 50.9582C23.4699 50.9577 23.4697 50.9573 23.4695 50.9569C23.4694 50.9566 23.4692 50.9563 23.4692 50.9562C23.469 50.9559 23.4688 50.9555 24.3677 50.5172C25.2665 50.079 25.2663 50.0786 25.2662 50.0783C25.2661 50.0781 25.2659 50.0778 25.2658 50.0775C25.2656 50.077 25.2653 50.0765 25.2651 50.076C25.2646 50.075 25.264 50.0739 25.2635 50.0728C25.2624 50.0706 25.2612 50.0681 25.2598 50.0655C25.2572 50.0603 25.2541 50.0542 25.2506 50.0475C25.2436 50.0341 25.2348 50.0177 25.2243 49.9989C25.2035 49.9619 25.1743 49.9128 25.137 49.8578C25.071 49.7605 24.9425 49.5884 24.7463 49.4435C24.5437 49.2941 24.1663 49.1047 23.6928 49.2175C23.2457 49.3241 22.9678 49.6425 22.8064 49.8996L24.5006 50.9626ZM23.419 50.8334L24.8982 55.2715L26.7956 54.639L25.3164 50.201L23.419 50.8334ZM25.7885 55.9535C26.3054 55.9838 26.8261 56 27.3519 56V54C26.8673 54 26.3856 53.985 25.9053 53.957L25.7885 55.9535Z" fill="white" mask="url(#path-1-outside-1)"/>
<path fill-rule="evenodd" clip-rule="evenodd" d="M51.5814 40.4546C51.6492 40.4546 51.7855 40.4771 51.7855 40.3641C51.7855 40.2729 51.6948 40.2729 51.6267 40.2729H51.4679V40.4546H51.5814ZM51.8305 40.7728H51.7624L51.604 40.5228H51.4677V40.7728H51.3995V40.2045H51.6489C51.6949 40.2045 51.7399 40.2274 51.7852 40.2503C51.8309 40.2732 51.8534 40.3186 51.8534 40.364C51.8534 40.4774 51.7624 40.5228 51.6718 40.5228L51.8305 40.7728ZM52.0347 40.4999C52.0347 40.2499 51.8306 40.0457 51.6036 40.0457C51.3535 40.0461 51.1508 40.2492 51.1501 40.4999C51.1501 40.7274 51.3542 40.932 51.6036 40.932C51.8306 40.932 52.0347 40.7274 52.0347 40.4999ZM51.105 40.5C51.105 40.2275 51.3087 40 51.6042 40C51.8764 40 52.0802 40.2275 52.0802 40.5C52.0802 40.7729 51.8764 41 51.6042 41C51.3087 41 51.105 40.7729 51.105 40.5Z" fill="white"/>
<path fill-rule="evenodd" clip-rule="evenodd" d="M28.3671 19.062C28.3671 19.062 23.4677 19.0183 23.4677 24.0478C23.4677 29.0773 28.0714 29.3801 28.0714 29.3801H29.5076C29.5076 29.3801 30.8594 29.3365 30.9019 30.2471C30.9863 31.7213 29.8884 31.7213 29.465 31.7213H23.4671V36.0133H29.465C29.465 36.0133 35.3786 36.1866 35.5056 30.3338C35.59 25.4346 29.7189 25.0881 29.7189 25.0881C29.7189 25.0881 28.1558 25.0444 28.1558 23.8738C28.1558 23.8738 28.2409 23.1371 29.0005 23.1371H45.3044V19.062H28.3671ZM18.2298 22.573L15.1042 28.99H18.2298V22.573ZM6.95117 35.8838L14.935 19.062H22.7068V35.9268H18.2294V31.5481H13.9208L11.7668 35.9268L6.95117 35.8838ZM36.2234 29.4667H45.2626V25.3043H36.2234V29.4667ZM36.2234 35.9269H45.3045V31.5482H36.2234V35.9269Z" fill="#FEFEFE"/>
</svg>
