<?xml version="1.0" encoding="utf-8"?>
<!-- Generator: Adobe Illustrator 16.0.5, SVG Export Plug-In . SVG Version: 6.00 Build 0)  -->
<!DOCTYPE svg PUBLIC "-//W3C//DTD SVG 1.1//EN" "http://www.w3.org/Graphics/SVG/1.1/DTD/svg11.dtd">
<svg version="1.1" id="certified-first" xmlns:sketch="http://www.bohemiancoding.com/sketch/ns"
	 xmlns="http://www.w3.org/2000/svg" xmlns:xlink="http://www.w3.org/1999/xlink" x="0px" y="0px" width="154.031px"
	 height="22.001px" viewBox="0 0 154.031 22.001" enable-background="new 0 0 154.031 22.001" xml:space="preserve">
<g>
	<path fill="#FFFFFF" d="M15.229,20.861c-0.317,0.156-0.793,0.316-1.269,0.475c-0.556,0.158-1.11,0.238-1.745,0.396
		c-0.635,0.08-1.348,0.158-1.983,0.158c-1.507,0-2.855-0.236-4.125-0.633c-1.269-0.477-2.3-1.111-3.252-1.904
		c-0.873-0.873-1.586-1.904-2.062-3.174C0.238,14.912,0,13.563,0,11.977c0-1.586,0.238-3.015,0.793-4.204
		c0.476-1.269,1.19-2.3,2.142-3.173c0.873-0.873,1.983-1.507,3.331-1.983c1.269-0.396,2.697-0.634,4.204-0.634
		c1.27,0,2.38,0.08,3.411,0.396c1.031,0.238,1.903,0.555,2.697,0.873c-0.159,0.317-0.238,0.634-0.396,1.11
		c-0.079,0.396-0.159,0.793-0.159,1.11h-0.238c-0.158-0.159-0.396-0.476-0.713-0.714c-0.397-0.317-0.793-0.555-1.19-0.793
		c-0.476-0.317-0.952-0.476-1.507-0.714c-0.556-0.159-1.19-0.238-1.904-0.238c-1.11,0-2.142,0.159-3.014,0.556
		C6.504,3.886,5.631,4.442,4.918,5.156c-0.635,0.793-1.19,1.666-1.586,2.776c-0.396,1.19-0.635,2.459-0.635,4.045
		c0,1.506,0.238,2.855,0.635,3.966c0.396,1.189,0.952,2.061,1.586,2.775c0.713,0.793,1.586,1.348,2.538,1.666
		c0.873,0.396,1.904,0.555,3.014,0.555c0.714,0,1.348-0.078,1.904-0.238c0.555-0.238,1.11-0.396,1.586-0.635
		c0.476-0.238,0.873-0.475,1.269-0.793c0.396-0.238,0.714-0.477,0.952-0.713l0.079,0.158l-0.238,1.666
		C15.863,20.543,15.625,20.701,15.229,20.861"/>
	<path fill="#FFFFFF" d="M22.129,9.359c-0.476,0.317-0.873,0.713-1.19,1.189s-0.555,0.952-0.714,1.587
		c-0.158,0.555-0.238,1.031-0.317,1.586c0.634,0,1.189,0,1.824,0c0.635,0,1.27,0.079,1.904,0.079c0.555,0,1.189-0.079,1.824-0.079
		c0.635,0,1.27,0,1.904,0c0-0.556-0.08-1.032-0.159-1.586c-0.079-0.556-0.238-1.111-0.476-1.587
		c-0.238-0.476-0.635-0.873-1.11-1.189c-0.397-0.317-1.032-0.476-1.745-0.476C23.161,8.883,22.605,9.042,22.129,9.359L22.129,9.359z
		 M19.036,9.915c1.11-1.269,2.696-1.903,4.838-1.903c0.952,0,1.824,0.079,2.538,0.396c0.714,0.317,1.348,0.714,1.824,1.269
		c0.476,0.476,0.793,1.111,1.031,1.745c0.238,0.714,0.396,1.428,0.396,2.221c0,0.238,0,0.396,0,0.556
		c-0.079,0.159-0.079,0.396-0.079,0.556c-1.032,0-1.983-0.08-3.015-0.08c-0.951,0-1.983,0-3.014,0c-0.555,0-1.19,0-1.825,0
		c-0.634,0-1.189,0.08-1.824,0.08c0,0.078,0,0.236,0,0.396v0.396c0,0.713,0.079,1.428,0.317,2.061
		c0.159,0.635,0.476,1.111,0.873,1.588c0.476,0.475,0.952,0.871,1.586,1.109c0.555,0.238,1.269,0.396,2.062,0.396
		c0.396,0,0.713-0.08,1.11-0.158c0.396-0.08,0.793-0.238,1.189-0.396s0.714-0.396,1.031-0.635s0.635-0.477,0.873-0.793l0.159,0.078
		l-0.159,1.35c-0.635,0.475-1.27,0.871-2.142,1.189c-0.793,0.318-1.666,0.477-2.538,0.477c-1.031,0-1.983-0.158-2.776-0.477
		c-0.873-0.318-1.586-0.793-2.221-1.348c-0.555-0.557-1.031-1.27-1.348-2.062c-0.317-0.793-0.476-1.666-0.476-2.617
		C17.45,13.008,18.005,11.263,19.036,9.915L19.036,9.915z"/>
	<path fill="#FFFFFF" d="M37.358,10.232c-0.238-0.08-0.476-0.159-0.793-0.159c-0.476,0-0.873,0.159-1.19,0.318
		c-0.396,0.238-0.634,0.476-0.952,0.872c-0.238,0.317-0.396,0.714-0.555,1.19c-0.079,0.476-0.159,0.952-0.159,1.507v3.093
		c0,1.27,0,2.221,0,2.855s0.08,1.189,0.08,1.586c-0.317,0-0.714-0.078-1.11-0.078c-0.397,0-0.793,0.078-1.11,0.078
		c0-0.633,0.079-1.506,0.079-2.537c0-1.111,0-2.459,0-4.045v-0.874c0-0.713,0-1.586,0-2.538c0-0.952-0.079-1.982-0.079-3.251
		c0.158,0.079,0.396,0.079,0.555,0.079c0.159,0.08,0.396,0.08,0.556,0.08c0.158,0,0.396,0,0.555-0.08c0.159,0,0.396,0,0.556-0.079
		c-0.08,0.713-0.08,1.189-0.08,1.586c0,0.397-0.08,0.793-0.08,1.11l0.08,0.08c1.11-2.062,2.379-3.014,3.728-3.014
		c0.158,0,0.317,0,0.396,0c0.159,0,0.317,0.079,0.476,0.079c-0.08,0.238-0.159,0.635-0.159,1.032c0,0.476,0,0.951,0,1.269
		l-0.238,0.158C37.834,10.47,37.675,10.311,37.358,10.232"/>
	<path fill="#FFFFFF" d="M43.386,4.521c0,0.635-0.08,1.348-0.08,2.062c-0.079,0.635-0.079,1.349-0.159,1.983c0.238,0,0.635,0,1.19,0
		s1.189,0,1.824,0c0,0,0,0.159,0,0.238v0.634c0,0.159,0,0.238,0,0.317c-0.238-0.08-0.476-0.08-0.793-0.08c-0.238,0-0.476,0-0.793,0
		h-1.428c0,0.08,0,0.318-0.079,0.873c0,0.556,0,1.11,0,1.825c-0.079,0.713-0.079,1.506-0.079,2.3c0,0.793,0,1.506,0,2.062
		c0,0.555,0,1.031,0,1.586c0.079,0.475,0.158,0.951,0.317,1.348c0.159,0.396,0.317,0.715,0.635,0.951
		c0.317,0.24,0.714,0.396,1.269,0.396c0.159,0,0.396-0.078,0.635-0.078c0.238-0.078,0.476-0.078,0.634-0.158v0.713
		c-0.317,0-0.634,0.08-1.031,0.16c-0.397,0.078-0.714,0.158-1.111,0.158c-1.19,0-2.062-0.318-2.617-0.873
		c-0.556-0.555-0.793-1.428-0.793-2.539c0-0.555,0-1.109,0-1.664c0-0.557,0.08-1.189,0.08-1.904c0-0.713,0.079-1.507,0.079-2.379
		c0-0.793,0-1.745,0-2.776h-0.873c-0.159,0-0.317,0-0.476,0c-0.159,0-0.397,0-0.556,0.08c0-0.159,0.08-0.238,0.08-0.396
		c0-0.08,0-0.159,0-0.317c0-0.08,0-0.159,0-0.238c0-0.08-0.08-0.238-0.08-0.317c0.873,0.079,1.428,0.079,1.825,0.079
		c0-0.317,0-0.793,0-1.348s0-1.189-0.08-1.745l2.3-0.952H43.386"/>
	<path fill="#FFFFFF" d="M47.907,10.866c0-0.952-0.079-1.824-0.159-2.617c0.555,0.079,0.952,0.159,1.269,0.159
		s0.714-0.08,1.269-0.159c-0.079,0.793-0.159,1.666-0.238,2.617c0,0.873,0,1.745,0,2.617v2.856c0,0.871,0,1.744,0,2.695
		c0.079,0.873,0.159,1.746,0.238,2.459c-0.476,0-0.872-0.078-1.269-0.078c-0.396,0-0.873,0.078-1.269,0.078
		c0.08-0.713,0.159-1.586,0.159-2.459c0.079-0.951,0.079-1.824,0.079-2.695v-2.856C47.986,12.611,47.986,11.739,47.907,10.866
		L47.907,10.866z M47.986,2.379c0.317-0.238,0.635-0.396,1.031-0.396c0.397,0,0.714,0.158,1.031,0.396
		c0.238,0.317,0.396,0.634,0.396,1.031c0,0.396-0.159,0.713-0.396,1.031c-0.317,0.238-0.634,0.396-1.031,0.396
		c-0.396,0-0.714-0.159-1.031-0.396c-0.238-0.318-0.396-0.635-0.396-1.031C47.59,3.014,47.749,2.697,47.986,2.379L47.986,2.379z"/>
	<path fill="#FFFFFF" d="M57.901,2.379c-0.396,0-0.714,0.08-1.031,0.238c-0.317,0.159-0.556,0.317-0.714,0.556
		c-0.159,0.317-0.317,0.555-0.396,0.873c-0.08,0.396-0.159,0.713-0.159,1.11c0,0.317,0.079,0.793,0.079,1.427
		c0.08,0.635,0.159,1.269,0.317,1.825c0.476,0,0.952,0,1.427,0c0.476,0,0.952,0,1.428,0c0,0.079,0,0.158-0.08,0.238
		c0,0.159,0,0.238,0,0.317c0,0.08,0,0.159,0,0.238c0.08,0.159,0.08,0.238,0.08,0.317c-0.476,0-0.952,0-1.428-0.08
		c-0.476,0-0.951,0-1.427,0c0,2.062,0,4.045,0,6.028c0,1.982,0,4.045,0.079,6.027c-0.238,0-0.396-0.078-0.635-0.078h-0.555
		c-0.396,0-0.873,0.078-1.269,0.078c0.159-1.982,0.238-4.045,0.238-6.027c0-1.904,0-3.966,0-6.028c-0.317,0-0.635,0-1.031,0
		c-0.317,0.08-0.634,0.08-0.952,0.08c0-0.08,0-0.159,0-0.317c0-0.079,0-0.159,0-0.238c0-0.079,0-0.158,0-0.317
		c0-0.08,0-0.159,0-0.238c0.317,0,0.635,0,1.031,0c0.317,0,0.634,0,0.952,0c0-0.556,0.079-1.111,0.159-1.745
		c0.159-0.634,0.317-1.269,0.476-1.904c0.238-0.555,0.476-1.189,0.793-1.745c0.317-0.555,0.634-0.951,1.031-1.348
		c0.317-0.317,0.793-0.635,1.27-0.873c0.555-0.317,1.031-0.396,1.586-0.396c0.238,0,0.397,0,0.556,0.08c0,0.317,0,0.714-0.08,1.11
		c0,0.317,0,0.714,0,1.11l-0.159,0.079C59.011,2.459,58.457,2.379,57.901,2.379"/>
	<path fill="#FFFFFF" d="M60.439,10.866c0-0.952-0.08-1.824-0.159-2.617c0.476,0.079,0.952,0.159,1.27,0.159
		c0.317,0,0.713-0.08,1.269-0.159c-0.159,0.793-0.238,1.666-0.238,2.617c0,0.873-0.079,1.745-0.079,2.617v2.856
		c0,0.871,0.079,1.744,0.079,2.695c0,0.873,0.08,1.746,0.238,2.459c-0.476,0-0.873-0.078-1.269-0.078
		c-0.476,0-0.873,0.078-1.27,0.078c0.08-0.713,0.159-1.586,0.159-2.459c0-0.951,0-1.824,0-2.695v-2.856
		C60.439,12.611,60.439,11.739,60.439,10.866L60.439,10.866z M60.519,2.379c0.238-0.238,0.634-0.396,1.031-0.396
		c0.396,0,0.713,0.158,0.952,0.396c0.317,0.317,0.476,0.634,0.476,1.031c0,0.396-0.158,0.713-0.476,1.031
		c-0.238,0.238-0.555,0.396-0.952,0.396c-0.397,0-0.793-0.159-1.031-0.396c-0.317-0.318-0.476-0.635-0.476-1.031
		C60.042,3.014,60.201,2.697,60.519,2.379L60.519,2.379z"/>
	<path fill="#FFFFFF" d="M69.561,9.359c-0.476,0.317-0.873,0.713-1.189,1.189c-0.317,0.476-0.556,0.952-0.714,1.587
		c-0.159,0.555-0.238,1.031-0.238,1.586c0.555,0,1.19,0,1.745,0c0.634,0,1.269,0.079,1.903,0.079c0.556,0,1.19-0.079,1.824-0.079
		c0.635,0,1.269,0,1.904,0c0-0.556-0.079-1.032-0.159-1.586c-0.079-0.556-0.238-1.111-0.476-1.587
		c-0.238-0.476-0.634-0.873-1.031-1.189c-0.476-0.317-1.11-0.476-1.825-0.476C70.592,8.883,70.037,9.042,69.561,9.359L69.561,9.359z
		 M66.467,9.915c1.11-1.269,2.697-1.903,4.838-1.903c0.952,0,1.825,0.079,2.539,0.396c0.714,0.317,1.349,0.714,1.824,1.269
		c0.476,0.476,0.873,1.111,1.11,1.745c0.238,0.714,0.317,1.428,0.317,2.221c0,0.238,0,0.396,0,0.556c0,0.159-0.08,0.396-0.08,0.556
		c-1.031,0-1.983-0.08-3.014-0.08c-0.952,0-1.983,0-3.014,0c-0.555,0-1.19,0-1.824,0c-0.555,0-1.19,0.08-1.825,0.08
		c0,0.078,0,0.236,0,0.396v0.396c0,0.713,0.08,1.428,0.318,2.061c0.158,0.635,0.476,1.111,0.952,1.588
		c0.396,0.475,0.873,0.871,1.507,1.109c0.555,0.238,1.269,0.396,2.062,0.396c0.397,0,0.793-0.08,1.11-0.158
		c0.397-0.08,0.793-0.238,1.19-0.396s0.714-0.396,1.031-0.635c0.317-0.238,0.634-0.477,0.873-0.793l0.159,0.078l-0.159,1.35
		c-0.555,0.475-1.269,0.871-2.142,1.189c-0.793,0.318-1.666,0.477-2.538,0.477c-1.031,0-1.983-0.158-2.776-0.477
		c-0.872-0.318-1.586-0.793-2.141-1.348c-0.635-0.557-1.11-1.27-1.428-2.062c-0.317-0.793-0.476-1.666-0.476-2.617
		C64.881,13.008,65.436,11.263,66.467,9.915L66.467,9.915z"/>
	<path fill="#FFFFFF" d="M81.934,17.926c0.159,0.713,0.476,1.348,0.872,1.744c0.318,0.477,0.793,0.793,1.27,0.951
		c0.396,0.16,0.872,0.24,1.348,0.24c0.714,0,1.349-0.16,1.904-0.557c0.476-0.396,0.952-0.873,1.269-1.428
		c0.317-0.555,0.635-1.27,0.793-1.982c0.159-0.715,0.239-1.508,0.239-2.221c0-1.825-0.396-3.173-1.111-4.125
		c-0.634-0.952-1.665-1.348-3.014-1.348c-0.714,0-1.27,0.079-1.745,0.396s-0.952,0.793-1.269,1.269
		c-0.317,0.555-0.555,1.189-0.714,1.983c-0.159,0.714-0.238,1.507-0.238,2.301C81.538,16.34,81.696,17.211,81.934,17.926
		L81.934,17.926z M89.548,18.877c-0.159,0.318-0.397,0.635-0.635,0.951c-0.238,0.318-0.555,0.635-0.952,0.953
		c-0.396,0.316-0.872,0.555-1.349,0.713c-0.555,0.238-1.11,0.318-1.824,0.318c-0.713,0-1.427-0.158-2.062-0.396
		c-0.714-0.238-1.348-0.635-1.824-1.191c-0.556-0.555-1.032-1.268-1.349-2.141c-0.318-0.793-0.477-1.904-0.477-3.094
		s0.159-2.22,0.556-3.093c0.317-0.872,0.793-1.586,1.348-2.141c0.635-0.634,1.269-1.031,1.983-1.348
		c0.714-0.318,1.428-0.396,2.142-0.396c2.062,0,3.489,0.872,4.282,2.776h0.08V8.011c0-0.714,0-1.428,0-2.142
		c0-0.713,0-1.427-0.08-2.062c0-0.634,0-1.269,0-1.824s0-1.11,0-1.507c0.159,0,0.397,0,0.635,0.079c0.158,0,0.396,0,0.634,0
		c0.159,0,0.397,0,0.556,0c0.238-0.079,0.396-0.079,0.634-0.079c0,0.555-0.08,1.427-0.08,2.538c-0.079,1.11-0.079,2.38-0.079,3.728
		c-0.079,1.348-0.079,2.776-0.079,4.204c0,1.428,0,2.777,0,3.967c0,1.268,0,2.379,0,3.41s0,2.141,0,3.172c-0.317,0-0.714,0-1.032,0
		c-0.396,0-0.713,0-1.11,0L89.548,18.877L89.548,18.877L89.548,18.877z"/>
	<path fill="#FBCC21" d="M114.137,3.173c0,1.586-1.27,2.855-2.936,2.855c-1.586,0-2.934-1.27-2.934-2.855
		c0-1.666,1.348-2.935,2.934-2.935C112.867,0.238,114.137,1.507,114.137,3.173"/>
	<path fill="#D1342C" d="M107.475,5.076v-4.6H95.418v20.94h5.393v-8.17h6.107v-4.6h-6.107V5.076H107.475"/>
	<path fill="#D1342C" d="M108.664,7.139h5.156v14.277h-5.156V7.139z"/>
	<path fill="#D1342C" d="M148.322,7.297h-2.855V2.935h-5.076v4.362h-1.666v4.125h1.666v9.995h5.076v-9.995h2.855V7.297"/>
	<path fill="#D1342C" d="M122.465,7.614c-1.508,0.714-2.062,2.062-2.062,2.062V7.139h-5.076v14.277h5.076v-6.742
		c0-0.714,0.555-2.459,2.143-3.094c1.586-0.635,3.488,0.238,3.488,0.238V7.059C126.033,7.059,124.527,6.742,122.465,7.614"/>
	<path fill="#D1342C" d="M137.932,7.773l-1.666,3.172c0,0-0.477-0.396-1.982-0.713c-1.111-0.159-2.143,0.079-2.221,0.793
		c-0.158,0.793,0.238,1.111,1.744,1.349c1.508,0.238,3.252,0.713,4.045,2.142c0.793,1.428,0.635,3.41,0.16,4.52
		c-0.637,1.189-2.223,2.459-4.125,2.777c-2.062,0.396-4.283,0.158-6.346-0.635s-1.746-0.793-1.746-0.793l1.904-3.41
		c0,0,1.189,0.793,3.332,1.268c0.951,0.238,2.141,0.158,2.299-1.031c0.08-0.793-0.871-1.189-1.744-1.268
		c-1.35-0.16-4.125-0.715-4.6-2.856c-0.396-2.221,0.316-4.045,1.586-4.917c1.268-0.873,3.014-1.428,4.838-1.428
		S137.693,7.535,137.932,7.773"/>
	<path fill="#D1342C" d="M151.098,2.538c0.396,0,1.031,0.079,1.031-0.476c0-0.318-0.396-0.318-0.715-0.318h-0.871v0.793H151.098
		L151.098,2.538z M152.525,4.362h-0.555l-0.873-1.428h-0.555v1.428h-0.477V1.269h1.428c0.555,0,1.111,0.159,1.111,0.793
		c0,0.634-0.477,0.872-1.031,0.872L152.525,4.362L152.525,4.362z M153.635,2.855c0-1.349-1.189-2.379-2.457-2.379
		c-1.35,0-2.459,1.031-2.459,2.379c0,1.348,1.109,2.379,2.459,2.379C152.445,5.235,153.635,4.204,153.635,2.855L153.635,2.855z
		 M148.322,2.855c0-1.586,1.268-2.855,2.855-2.855c1.586,0,2.854,1.269,2.854,2.855s-1.268,2.855-2.854,2.855
		C149.59,5.71,148.322,4.442,148.322,2.855L148.322,2.855z"/>
</g>
</svg>
